<svg version="1.2" xmlns="http://www.w3.org/2000/svg" viewBox="0 0 344 268" width="344" height="268">
	<title>Layer</title>
	<style>
		.s0 { fill: #2e7d32 } 
	</style>
	<path class="s0" d="m271.8 205.6c-25.4 15.1-50.6 29.9-75.7 44.8-7.9 4.6-15.7 9.1-23.4 14-4.6 2.9-8.7 3-13.4 0.3-23.7-13.5-47.5-26.7-71.2-40-10.4-5.8-20.9-11.7-31.4-17.4-3.4-1.8-5.1-4.1-5-8.3 0.1-23.5 0-47 0.1-70.5 0-2.7-0.7-4.3-3.2-5.5-3.6-1.7-7.1-3.6-10.4-5.7-2.5-1.7-4.6-1.8-7.3-0.4-6.3 3.2-12.7 2.8-18.7-0.6-6.8-3.7-10-11.4-8.5-19.8 1.3-7.4 7.1-12.7 14.6-14.2 4.2-0.7 8.1-0.2 11.9 1.5 1.5 0.8 2.7 0.6 4.2-0.2q42-23.2 84-46.4c10.1-5.6 20.2-11.2 30.3-16.7 1.8-1 2.8-2.2 3.4-4.3 2.3-8.5 10.3-14.1 19.2-13.8 8.9 0.3 16.3 6.3 18 15 0.4 2 1.5 2.9 3 3.7 17.7 9.5 35.3 19.1 53 28.6 20 10.8 40 21.6 60 32.3 6.7 3.6 13.4 7.2 20.1 10.8 3.1 1.7 4.4 4.1 4.4 7.8-0.1 21.6 0 43.3-0.1 65 0 2.2 0.5 3.8 2.2 5.4 3.1 2.8 5.9 5.8 8.8 8.8 3.2 3.3 4.2 7.5 2.4 10.7-1.7 3-5.3 4.1-9.9 3-0.5-0.1-1.1-0.2-2.1-0.4 1 5.5 2 10.7 2.9 15.9 1.1 5.8 2.3 11.7 3.4 17.6 0.4 2.4-0.3 4.2-2.6 5.6-3.4 2-6.6 4.3-9.9 6.6-2.4 1.6-4.7 1.6-7-0.3-2.6-2-5.2-4.1-7.9-5.9-2.9-1.9-3.5-4.3-2.9-7.5 1.9-9.6 3.7-19.2 5.5-28.8 0.1-1 0.1-2.1 0.3-3.4-2.2 0.3-4.1 1.7-6.3 1.3-2.7-0.6-5.4-1.6-6.3-4.7-0.9-3.1-0.8-6 1.5-8.4 3.2-3.2 6.3-6.4 9.6-9.4 1.9-1.8 2.6-3.7 2.6-6.2-0.1-16.2-0.1-32.3-0.1-48.4 0-1.4 0-2.8 0-4.1-1.7-0.6-2.7 0.3-3.8 0.9-11 6-21.9 12.1-32.8 18.1-2.3 1.2-3.3 2.8-3.3 5.3q0.2 30.8 0.3 61.5c0 2.5-0.1 5-2.5 6.8zm-157.4-65.3c17.8 9.6 35.6 19.2 53.3 28.8 2.2 1.3 4 1.3 6.2 0.1q30.9-16.9 61.9-33.7c18.5-10 37-20 55.5-30 3.7-2 7.3-4.1 10.8-6.1-0.4-1.5-1.3-1.7-2-2.1-5.8-3.1-11.6-6-17.3-9.1q-48.1-25.8-96.2-51.7c-1.4-0.8-2.3-0.8-3.7 0.2-7.1 5.4-17.6 5.4-24.7 0-1.4-1.1-2.5-1.3-4-0.4-2.5 1.6-5.2 3-7.8 4.4q-27.8 15.3-55.5 30.6-24 13.3-48 26.5c-0.9 0.5-2 0.9-2 2.2 0.1 1.1 1.1 1.2 1.8 1.6 23.8 12.9 47.6 25.7 71.7 38.7zm142.5 55.2c1.5-1.2 1.3-2.9 1.3-4.4q0-22.6-0.1-45.2c0-1.1 0.5-2.4-0.8-3.2-0.3 0-0.6 0-0.9 0.2-26.9 14.6-53.8 29.2-80.6 44-3.6 1.9-6.6 1.8-9.9-0.1-15.6-8.5-31.2-16.8-46.8-25.3-14.8-8.1-29.6-16.2-44.4-24.2-1.9-1.1-3.9-2.1-5.8-3-1.6 1.3-1.3 2.9-1.3 4.4-0.1 17.7 0 35.4-0.1 53.1 0 2.3 0.8 3.5 2.7 4.6 8.1 4.4 16.1 8.9 24.1 13.4 22.5 12.5 45.1 25 67.6 37.7 2.7 1.5 4.4 1.5 6.9 0 9-5.5 18-10.7 27-16 20.3-11.9 40.5-23.8 61.1-36z"/>
</svg>